<?xml version="1.0" encoding="UTF-8"?>
<!DOCTYPE svg PUBLIC "-//W3C//DTD SVG 1.1//EN" "http://www.w3.org/Graphics/SVG/1.1/DTD/svg11.dtd">
<svg xmlns="http://www.w3.org/2000/svg" version="1.1" width="220px" height="220px" style="shape-rendering:geometricPrecision; text-rendering:geometricPrecision; image-rendering:optimizeQuality; fill-rule:evenodd; clip-rule:evenodd" xmlns:xlink="http://www.w3.org/1999/xlink">
<g><path style="opacity:0.709" fill="#282223" d="M 91.5,-0.5 C 103.5,-0.5 115.5,-0.5 127.5,-0.5C 177.617,11.2832 208.283,42.2832 219.5,92.5C 219.5,104.167 219.5,115.833 219.5,127.5C 207.833,177.167 177.167,207.833 127.5,219.5C 115.833,219.5 104.167,219.5 92.5,219.5C 41.8392,208.173 10.8392,177.173 -0.5,126.5C -0.5,115.5 -0.5,104.5 -0.5,93.5C 10.2673,42.7323 40.934,11.399 91.5,-0.5 Z"/></g>
<g><path style="opacity:1" fill="#ed4036" d="M 214.5,89.5 C 214.421,93.2017 214.754,96.8683 215.5,100.5C 215.36,102.03 214.693,103.03 213.5,103.5C 205.42,100.63 197.42,97.4632 189.5,94C 184.114,92.0556 178.614,90.5556 173,89.5C 171.97,89.1639 171.47,88.4972 171.5,87.5C 162.756,65.1216 146.423,56.2883 122.5,61C 111.869,65.2994 104.202,72.6327 99.5,83C 68.0065,83.8762 38.0065,90.7095 9.5,103.5C 8.16667,103.833 6.83333,104.167 5.5,104.5C 3.63105,102.365 2.96438,99.6981 3.5,96.5C 5.53692,77.1023 12.5369,59.769 24.5,44.5C 25.1667,44.5 25.8333,44.5 26.5,44.5C 23.9921,66.9423 33.6588,74.7756 55.5,68C 71.2618,61.2636 79.4284,49.4303 80,32.5C 78.2575,27.0896 74.7575,23.2563 69.5,21C 61.5546,19.8065 53.8879,20.6398 46.5,23.5C 53.8255,17.2061 62.1589,12.5395 71.5,9.5C 76.1646,8.9431 80.4979,7.60976 84.5,5.5C 133.677,-3.6075 172.511,12.3925 201,53.5C 207.772,64.6486 212.272,76.6486 214.5,89.5 Z"/></g>
<g><path style="opacity:1" fill="#c23931" d="M 84.5,5.5 C 80.4979,7.60976 76.1646,8.9431 71.5,9.5C 75.5021,7.39024 79.8354,6.0569 84.5,5.5 Z"/></g>
<g><path style="opacity:1" fill="#fefbfb" d="M 26.5,44.5 C 28.664,42.178 30.3307,39.5113 31.5,36.5C 34.8744,32.1245 38.8744,28.4578 43.5,25.5C 45.0269,25.573 46.0269,24.9063 46.5,23.5C 53.8879,20.6398 61.5546,19.8065 69.5,21C 74.7575,23.2563 78.2575,27.0896 80,32.5C 79.4284,49.4303 71.2618,61.2636 55.5,68C 33.6588,74.7756 23.9921,66.9423 26.5,44.5 Z"/></g>
<g><path style="opacity:1" fill="#cb827e" d="M 46.5,23.5 C 46.0269,24.9063 45.0269,25.573 43.5,25.5C 43.9731,24.0937 44.9731,23.427 46.5,23.5 Z"/></g>
<g><path style="opacity:1" fill="#d55449" d="M 31.5,36.5 C 30.3307,39.5113 28.664,42.178 26.5,44.5C 25.8333,44.5 25.1667,44.5 24.5,44.5C 26.8432,41.7928 29.1765,39.1261 31.5,36.5 Z"/></g>
<g><path style="opacity:1" fill="#302423" d="M 171.5,87.5 C 170.833,87.1667 170.167,86.8333 169.5,86.5C 156.584,61.0489 137.584,55.2156 112.5,69C 107.367,73.6127 103.7,79.1127 101.5,85.5C 70.2374,85.9523 40.2374,92.2856 11.5,104.5C 11.1583,103.662 10.4916,103.328 9.5,103.5C 38.0065,90.7095 68.0065,83.8762 99.5,83C 104.202,72.6327 111.869,65.2994 122.5,61C 146.423,56.2883 162.756,65.1216 171.5,87.5 Z"/></g>
<g><path style="opacity:1" fill="#565658" d="M 169.5,86.5 C 169.5,88.1667 169.5,89.8333 169.5,91.5C 172.839,91.8897 176.173,92.3897 179.5,93C 192.309,97.5756 204.975,102.409 217.5,107.5C 217.605,114.912 216.938,122.245 215.5,129.5C 208.061,127.307 200.727,124.807 193.5,122C 191.833,121.333 190.167,121.333 188.5,122C 189.056,122.383 189.389,122.883 189.5,123.5C 187.597,123.204 185.93,122.537 184.5,121.5C 187.598,121.587 187.932,121.087 185.5,120C 179.038,117.395 172.371,116.062 165.5,116C 151.61,133.69 134.61,137.357 114.5,127C 108.894,122.554 104.561,117.054 101.5,110.5C 75.5011,110.119 50.1677,114.119 25.5,122.5C 16.6459,120.309 11.6459,114.642 10.5,105.5C 10.5,104.833 10.8333,104.5 11.5,104.5C 40.2374,92.2856 70.2374,85.9523 101.5,85.5C 103.7,79.1127 107.367,73.6127 112.5,69C 137.584,55.2156 156.584,61.0489 169.5,86.5 Z"/></g>
<g><path style="opacity:1" fill="#f0f0f0" d="M 113.5,105.5 C 113.34,103.847 112.674,102.514 111.5,101.5C 110.252,88.9171 115.252,79.7504 126.5,74C 149.194,70.0292 160.027,79.5292 159,102.5C 153.775,116.702 143.608,122.535 128.5,120C 121.674,117.007 116.674,112.174 113.5,105.5 Z"/></g>
<g><path style="opacity:1" fill="#4f4c4c" d="M 129.5,78.5 C 149.336,77.4888 156.836,86.4888 152,105.5C 146.771,114.021 139.271,116.855 129.5,114C 117.439,108.023 114.273,98.8568 120,86.5C 122.772,83.2166 125.939,80.5499 129.5,78.5 Z"/></g>
<g><path style="opacity:1" fill="#fbfbfb" d="M 131.5,79.5 C 146.335,78.8341 153.169,85.8341 152,100.5C 148.468,110.689 141.302,114.855 130.5,113C 119.613,107.337 116.447,98.8371 121,87.5C 123.855,83.7893 127.355,81.1226 131.5,79.5 Z"/></g>
<g><path style="opacity:1" fill="#9a322d" d="M 3.5,96.5 C 2.96438,99.6981 3.63105,102.365 5.5,104.5C 4.79105,105.404 3.79105,105.737 2.5,105.5C 2.19,102.287 2.52333,99.2869 3.5,96.5 Z"/></g>
<g><path style="opacity:1" fill="#b0362f" d="M 214.5,89.5 C 215.889,94.2688 216.556,99.2688 216.5,104.5C 215.209,104.737 214.209,104.404 213.5,103.5C 214.693,103.03 215.36,102.03 215.5,100.5C 214.754,96.8683 214.421,93.2017 214.5,89.5 Z"/></g>
<g><path style="opacity:1" fill="#363638" d="M 10.5,105.5 C 11.6459,114.642 16.6459,120.309 25.5,122.5C 22.754,123.251 20.0873,124.251 17.5,125.5C 13.4496,126.628 9.44957,127.961 5.5,129.5C 5.16667,129.167 4.83333,128.833 4.5,128.5C 2.77428,121.624 2.10761,114.624 2.5,107.5C 5.16667,106.833 7.83333,106.167 10.5,105.5 Z"/></g>
<g><path style="opacity:1" fill="#fdfdfd" d="M 86.5,112.5 C 86.8333,112.5 87.1667,112.5 87.5,112.5C 91.9315,112.231 96.2648,112.564 100.5,113.5C 115.358,137.061 134.691,141.561 158.5,127C 161.733,123.767 164.9,120.6 168,117.5C 173.534,118.759 179.034,120.092 184.5,121.5C 185.93,122.537 187.597,123.204 189.5,123.5C 198.01,125.61 206.01,128.776 213.5,133C 210.869,145.071 206.202,156.238 199.5,166.5C 172.216,189.996 140.883,197.829 105.5,190C 70.6319,178.967 48.6319,155.801 39.5,120.5C 49.9422,117.345 60.6088,115.345 71.5,114.5C 76.7312,114.556 81.7312,113.889 86.5,112.5 Z"/></g>
<g><path style="opacity:1" fill="#2e2a2b" d="M 113.5,105.5 C 116.674,112.174 121.674,117.007 128.5,120C 143.608,122.535 153.775,116.702 159,102.5C 160.027,79.5292 149.194,70.0292 126.5,74C 115.252,79.7504 110.252,88.9171 111.5,101.5C 111.279,104.097 110.779,104.097 110,101.5C 108.126,88.0238 113.293,78.1904 125.5,72C 142.061,67.5135 153.895,73.0135 161,88.5C 162.809,114.361 150.976,125.194 125.5,121C 117.587,118.105 113.087,112.605 112,104.5C 112.383,105.056 112.883,105.389 113.5,105.5 Z"/></g>
<g><path style="opacity:1" fill="#a09d9d" d="M 39.5,120.5 C 48.6319,155.801 70.6319,178.967 105.5,190C 140.883,197.829 172.216,189.996 199.5,166.5C 173.394,204.043 137.394,220.209 91.5,215C 55.0976,207.26 28.5976,186.76 12,153.5C 9.33318,146.999 7.16651,140.333 5.5,133.5C 5.83333,132.833 6.16667,132.167 6.5,131.5C 10.7836,129.629 15.117,127.962 19.5,126.5C 26.1117,124.296 32.7783,122.296 39.5,120.5 Z"/></g>
<g><path style="opacity:1" fill="#302d2e" d="M 184.5,121.5 C 179.034,120.092 173.534,118.759 168,117.5C 164.9,120.6 161.733,123.767 158.5,127C 134.691,141.561 115.358,137.061 100.5,113.5C 98.777,112.2 96.6103,111.533 94,111.5C 91.6392,111.504 89.4726,111.837 87.5,112.5C 87.1667,112.5 86.8333,112.5 86.5,112.5C 81.2688,112.444 76.2688,113.111 71.5,114.5C 60.6088,115.345 49.9422,117.345 39.5,120.5C 32.7783,122.296 26.1117,124.296 19.5,126.5C 19.1583,125.662 18.4916,125.328 17.5,125.5C 20.0873,124.251 22.754,123.251 25.5,122.5C 50.1677,114.119 75.5011,110.119 101.5,110.5C 104.561,117.054 108.894,122.554 114.5,127C 134.61,137.357 151.61,133.69 165.5,116C 172.371,116.062 179.038,117.395 185.5,120C 187.932,121.087 187.598,121.587 184.5,121.5 Z"/></g>
<g><path style="opacity:1" fill="#c6c5c5" d="M 86.5,112.5 C 81.7312,113.889 76.7312,114.556 71.5,114.5C 76.2688,113.111 81.2688,112.444 86.5,112.5 Z"/></g>
<g><path style="opacity:1" fill="#8a8888" d="M 87.5,112.5 C 89.4726,111.837 91.6392,111.504 94,111.5C 96.6103,111.533 98.777,112.2 100.5,113.5C 96.2648,112.564 91.9315,112.231 87.5,112.5 Z"/></g>
</svg>
